<svg width="7" height="7" viewBox="0 0 7 7" fill="none" xmlns="http://www.w3.org/2000/svg">
<path d="M0.93457 3.875H5.38207L4.02082 5.51C3.9893 5.54792 3.96556 5.59168 3.95096 5.63877C3.93635 5.68586 3.93116 5.73537 3.93569 5.78447C3.94483 5.88363 3.99299 5.9751 4.06957 6.03875C4.14615 6.1024 4.24488 6.13303 4.34404 6.12388C4.4432 6.11474 4.53467 6.06658 4.59832 5.99L6.47332 3.74C6.48594 3.7221 6.49722 3.7033 6.50707 3.68375C6.50707 3.665 6.52582 3.65375 6.53332 3.635C6.55032 3.592 6.55922 3.54623 6.55957 3.5C6.55922 3.45377 6.55032 3.408 6.53332 3.365C6.53332 3.34625 6.51457 3.335 6.50707 3.31625C6.49722 3.2967 6.48594 3.2779 6.47332 3.26L4.59832 1.01C4.56306 0.96767 4.51891 0.933627 4.469 0.910294C4.4191 0.886961 4.36466 0.874911 4.30957 0.875001C4.22195 0.87483 4.13704 0.905345 4.06957 0.961251C4.0316 0.992732 4.00021 1.03139 3.9772 1.07502C3.9542 1.11865 3.94002 1.1664 3.93549 1.21551C3.93097 1.26463 3.93617 1.31415 3.95081 1.36126C3.96546 1.40836 3.98924 1.45211 4.02082 1.49L5.38207 3.125H0.93457C0.835114 3.125 0.739731 3.16451 0.669405 3.23484C0.599079 3.30516 0.55957 3.40054 0.55957 3.5C0.55957 3.59946 0.599079 3.69484 0.669405 3.76517C0.739731 3.83549 0.835114 3.875 0.93457 3.875Z" fill="#231F20"/>
</svg>
