<svg width="51" height="52" viewBox="0 0 51 52" fill="none" xmlns="http://www.w3.org/2000/svg">
<path d="M44.1418 7.58168C42.2057 6.64592 8.18208 6.64592 6.24604 7.58168C2.07433 9.6053 0 15.8237 0 20.4103V31.4319C0 32.5105 8.29271 33.1559 18.1527 33.3587C17.5442 40.0749 16.8528 50.1055 18.2357 50.7139C20.3791 51.6589 23.2325 52 25.1962 52C27.1599 52 30.1562 51.6128 32.295 50.6678C33.6779 50.0594 32.8436 40.0703 32.2351 33.3587C42.0905 33.1559 50.3878 32.5105 50.3878 31.4319V20.4103C50.3878 15.8237 48.3135 9.6053 44.1418 7.58168Z" fill="url(#paint0_linear_16_74)"/>
<path d="M42.3902 15.8191L30.5434 22.7474C27.6394 24.4437 25.8508 27.6105 25.8508 31.0401V45.8738C25.8508 49.7459 29.9211 52.1752 33.1986 50.2576L45.6307 42.9882C48.5763 41.2642 50.3971 38.0513 50.3971 34.571V20.5993C50.3925 16.3815 45.958 13.7355 42.3902 15.8191Z" fill="url(#paint1_linear_16_74)"/>
<path d="M8.00231 15.8191L19.849 22.7474C22.7531 24.4437 24.5416 27.6105 24.5416 31.0401V45.8738C24.5416 49.7459 20.4713 52.1752 17.1939 50.2576L4.76174 42.9882C1.81619 41.2642 0 38.0513 0 34.571V20.5993C0 16.3815 4.43446 13.7355 8.00231 15.8191Z" fill="url(#paint2_linear_16_74)"/>
<path d="M6.24613 7.58168L18.2404 1.8427C22.5504 -0.614232 27.8376 -0.614232 32.1522 1.8427L44.1418 7.58168C46.8984 9.15356 46.8984 11.8502 44.1418 13.4221L30.5988 21.134C27.2476 23.0424 23.1358 23.0424 19.78 21.134L6.24613 13.4221C3.48957 11.8502 3.48957 9.15356 6.24613 7.58168Z" fill="url(#paint3_radial_16_74)"/>
<path d="M46.3544 19.5805C44.9393 18.76 43.0217 19.7142 41.8001 21.83C40.574 23.955 40.7122 26.0847 42.1274 26.9006C43.5426 27.7211 45.4602 26.7761 46.6817 24.6511C47.9125 22.5307 47.7696 20.401 46.3544 19.5805Z" fill="#616161"/>
<path d="M40.717 29.3483C39.3018 28.5278 37.3888 29.482 36.1627 31.5978C34.9365 33.7228 35.0748 35.8525 36.4899 36.6684C37.9051 37.4889 39.8227 36.5393 41.0443 34.4189C42.2704 32.2985 42.1321 30.1642 40.717 29.3483Z" fill="#616161"/>
<path d="M35.0793 39.1115C33.6687 38.291 31.7511 39.2452 30.525 41.361C29.2988 43.486 29.4371 45.6157 30.8522 46.4316C32.2674 47.2521 34.185 46.2979 35.4066 44.1821C36.6281 42.0663 36.4898 39.932 35.0793 39.1115Z" fill="#616161"/>
<path d="M4.02403 19.5805C2.61348 20.401 2.47058 22.5261 3.69674 24.6511C4.91829 26.7761 6.84051 27.7211 8.25105 26.9006C9.66621 26.0801 9.80449 23.9551 8.57833 21.83C7.35678 19.7142 5.43918 18.7646 4.02403 19.5805Z" fill="#353535"/>
<path d="M15.304 39.1115C13.8888 39.932 13.7552 42.0617 14.9767 44.1821C16.1983 46.3025 18.1205 47.2521 19.531 46.4316C20.9462 45.6111 21.0845 43.486 19.8583 41.361C18.6321 39.2452 16.7192 38.2956 15.304 39.1115Z" fill="#353535"/>
<path d="M20.7481 10.6655C21.5041 9.19043 24.1638 8.32382 26.5608 8.6511C28.9578 8.97838 30.3914 10.4304 29.6723 11.8824C28.9532 13.3345 26.1966 14.1919 23.7305 13.8692C21.2644 13.5465 19.9921 12.1452 20.7481 10.6655Z" fill="#F44336"/>
<defs>
<linearGradient id="paint0_linear_16_74" x1="25.1938" y1="4.6305" x2="25.1938" y2="90.5543" gradientUnits="userSpaceOnUse">
<stop stop-color="#E0E0E0"/>
<stop offset="0.1121" stop-color="#DCDCDC"/>
<stop offset="0.2242" stop-color="#D0D0D0"/>
<stop offset="0.3361" stop-color="#BCBCBC"/>
<stop offset="0.4192" stop-color="#A8A8A8"/>
<stop offset="0.4666" stop-color="#A4A4A4"/>
<stop offset="0.5119" stop-color="#999999"/>
<stop offset="0.5562" stop-color="#868686"/>
<stop offset="0.5572" stop-color="#858585"/>
</linearGradient>
<linearGradient id="paint1_linear_16_74" x1="38.122" y1="15.8222" x2="38.122" y2="41.037" gradientUnits="userSpaceOnUse">
<stop stop-color="#E0E0E0"/>
<stop offset="0.5591" stop-color="#DCDCDC"/>
<stop offset="0.7397" stop-color="#D9D9D9"/>
</linearGradient>
<linearGradient id="paint2_linear_16_74" x1="12.2704" y1="21.8683" x2="12.2704" y2="55.7641" gradientUnits="userSpaceOnUse">
<stop stop-color="#BDBDBD"/>
<stop offset="0.5002" stop-color="#ABABAB"/>
<stop offset="1" stop-color="#9E9E9E"/>
</linearGradient>
<radialGradient id="paint3_radial_16_74" cx="0" cy="0" r="1" gradientUnits="userSpaceOnUse" gradientTransform="translate(25.6579 19.8818) scale(25.8528 22.4376)">
<stop offset="0.1976" stop-color="#FAFAFA"/>
<stop offset="0.5158" stop-color="#F6F6F6"/>
<stop offset="0.8191" stop-color="#EBEBEB"/>
<stop offset="1" stop-color="#E0E0E0"/>
</radialGradient>
</defs>
</svg>
