<svg width="37" height="37" viewBox="0 0 37 37" fill="none" xmlns="http://www.w3.org/2000/svg">
<path d="M36.0476 33.1647L29.1446 26.2819C31.3718 23.4445 32.5803 19.9406 32.5758 16.3334C32.5758 13.121 31.6232 9.98064 29.8384 7.30957C28.0537 4.63851 25.517 2.55667 22.549 1.32732C19.5811 0.0979647 16.3153 -0.22369 13.1646 0.403029C10.0138 1.02975 7.11969 2.57669 4.84814 4.84825C2.57659 7.1198 1.02964 10.0139 0.402922 13.1647C-0.223797 16.3154 0.0978579 19.5812 1.32721 22.5491C2.55657 25.5171 4.63841 28.0538 7.30947 29.8385C9.98053 31.6233 13.1208 32.5759 16.3333 32.5759C19.9405 32.5804 23.4444 31.3719 26.2818 29.1447L33.1646 36.0477C33.3533 36.238 33.5779 36.3891 33.8253 36.4921C34.0727 36.5952 34.3381 36.6483 34.6061 36.6483C34.8741 36.6483 35.1395 36.5952 35.3869 36.4921C35.6343 36.3891 35.8589 36.238 36.0476 36.0477C36.2379 35.859 36.389 35.6344 36.492 35.387C36.5951 35.1396 36.6482 34.8742 36.6482 34.6062C36.6482 34.3382 36.5951 34.0728 36.492 33.8254C36.389 33.578 36.2379 33.3534 36.0476 33.1647ZM4.15145 16.3334C4.15145 13.9241 4.8659 11.5688 6.20446 9.56553C7.54302 7.56224 9.44557 6.00086 11.6715 5.07884C13.8975 4.15683 16.3468 3.91558 18.7099 4.38562C21.0729 4.85566 23.2435 6.01587 24.9472 7.71954C26.6508 9.4232 27.8111 11.5938 28.2811 13.9568C28.7511 16.3199 28.5099 18.7693 27.5879 20.9952C26.6659 23.2211 25.1045 25.1237 23.1012 26.4623C21.0979 27.8008 18.7426 28.5153 16.3333 28.5153C13.1025 28.5153 10.004 27.2318 7.71943 24.9473C5.43489 22.6627 4.15145 19.5642 4.15145 16.3334Z" fill="#231F20"/>
</svg>
