<svg width="9" height="9" viewBox="0 0 9 9" fill="none" xmlns="http://www.w3.org/2000/svg">
<path d="M4.63672 0.757812C4.81395 0.791181 4.9251 0.93082 4.98828 1.06445L5.8916 2.89062L7.90723 3.18359L7.91016 3.18457L7.9873 3.2002C8.06482 3.2198 8.14277 3.25227 8.20898 3.30664C8.30812 3.38807 8.36035 3.50228 8.36035 3.62793C8.36034 3.78948 8.26728 3.91838 8.17578 4.00977L8.17383 4.01172L6.71582 5.43262L7.06152 7.43945L7.06348 7.44629H7.0625C7.06802 7.48429 7.07031 7.52693 7.07031 7.56738C7.07031 7.64461 7.0546 7.72252 7.01953 7.79492L6.97754 7.86621C6.8944 7.98105 6.77048 8.03125 6.64453 8.03125C6.5368 8.03122 6.43715 7.99725 6.34961 7.94727V7.94629L4.55469 7.00391L2.75586 7.94824L2.75684 7.94922C2.67078 7.99624 2.57188 8.03121 2.46582 8.03125C2.3728 8.03125 2.27795 8.0045 2.2002 7.94141L2.12891 7.86621C2.06323 7.7753 2.03613 7.67056 2.03613 7.56738C2.03616 7.53094 2.04111 7.48658 2.04688 7.44629L2.04785 7.43945L2.29492 7.48242L2.04883 7.43945L2.39355 5.43262L0.932617 4.0127L0.922852 4.00293L0.923828 4.00195C0.849783 3.92195 0.77193 3.81465 0.753906 3.68457L0.75 3.62793L0.759766 3.53613C0.779047 3.44714 0.82705 3.36769 0.901367 3.30664C0.989471 3.2343 1.0984 3.20082 1.19922 3.18457L1.20312 3.18359L3.21777 2.89062L4.12207 1.06445C4.19439 0.911603 4.32952 0.750232 4.55469 0.75L4.63672 0.757812Z" fill="#FDBC4B" stroke="black" stroke-width="0.5"/>
</svg>
