<svg xmlns="http://www.w3.org/2000/svg" viewBox="0 0 180.54 199.23"><title>Google Play logo - Brandlogos.net</title><path d="M426.25,404l-83.52,87.53v.06A22.7,22.7,0,0,0,376,505l.27-.16,94-53.56Z" transform="translate(-341.96 -308.89)" style="fill:#ea4335"/><path d="M510.75,389.12l-.08,0-40.59-23.23L424.35,406l45.9,45.31,40.36-23a22.16,22.16,0,0,0,.14-39.19Z" transform="translate(-341.96 -308.89)" style="fill:#fbbc04"/><path d="M342.72,325.43a21.53,21.53,0,0,0-.77,5.73V485.83a23.25,23.25,0,0,0,.77,5.73l86.39-85.28Z" transform="translate(-341.96 -308.89)" style="fill:#4285f4"/><path d="M426.87,408.5l43.21-42.66-93.89-53.77a22.83,22.83,0,0,0-11.65-3.18,22.53,22.53,0,0,0-21.8,16.53s0,0,0,0Z" transform="translate(-341.96 -308.89)" style="fill:#34a853"/></svg>